<?xml version="1.0" encoding="UTF-8"?>
<svg version="1.1" xmlns="http://www.w3.org/2000/svg" width="500" height="500">
<path d="M0 0 C165 0 330 0 500 0 C500 165 500 330 500 500 C335 500 170 500 0 500 C0 335 0 170 0 0 Z " fill="#CBCCBA" transform="translate(0,0)"/>
<path d="M0 0 C0.74859787 -0.0049649 1.49719574 -0.00992981 2.26847839 -0.01504517 C4.75329512 -0.02967966 7.23804757 -0.03647817 9.72290039 -0.04199219 C11.00523654 -0.04623325 11.00523654 -0.04623325 12.31347847 -0.05056 C16.85579869 -0.06557379 21.3980871 -0.07478371 25.94042969 -0.07910156 C30.57833559 -0.08452637 35.2159389 -0.10841845 39.85375118 -0.13707352 C43.46176408 -0.15596096 47.06970871 -0.16091957 50.6777668 -0.16243744 C52.38335347 -0.16541658 54.08894039 -0.1732789 55.79447746 -0.18662262 C82.54751296 -0.38063341 111.47316745 3.81171601 131.67602539 23.04003906 C143.1333804 35.4578909 148.33911221 49.97769414 147.94555664 66.70019531 C147.38611897 77.46470853 144.08903086 87.49997189 137.63305664 96.16113281 C137.00786133 97.00289063 136.38266602 97.84464844 135.73852539 98.71191406 C129.77377588 106.00462264 122.81884373 109.8683293 114.63305664 114.16113281 C113.64305664 114.82113281 112.65305664 115.48113281 111.63305664 116.16113281 C116.28411833 124.83626 120.95072213 133.50285046 125.63305664 142.16113281 C126.13321289 143.08667969 126.63336914 144.01222656 127.14868164 144.96582031 C129.91430247 150.06791391 132.73781443 155.13151856 135.63305664 160.16113281 C136.59018555 161.85109375 136.59018555 161.85109375 137.56665039 163.57519531 C141.95379714 170.7806962 147.08596979 175.38651761 153.87524414 180.20019531 C156.63305664 182.16113281 156.63305664 182.16113281 158.63305664 184.16113281 C158.9029757 186.84952666 158.72043021 189.45255218 158.63305664 192.16113281 C152.48499676 195.40935689 147.24924351 195.58632533 140.37133789 195.52441406 C139.30312302 195.52491257 138.23490814 195.52541107 137.13432312 195.52592468 C134.88607921 195.52359255 132.63783227 195.51391514 130.38964844 195.49731445 C126.94645938 195.47363902 123.50404127 195.47677067 120.06079102 195.48339844 C117.87263536 195.47782389 115.68448295 195.47071542 113.49633789 195.46191406 C112.46712723 195.46282547 111.43791656 195.46373688 110.3775177 195.4646759 C109.41939682 195.45514389 108.46127594 195.44561188 107.47412109 195.43579102 C106.63363724 195.43118362 105.79315338 195.42657623 104.92720032 195.42182922 C102.39591804 195.13418542 100.7826891 194.51427239 98.63305664 193.16113281 C97.02560605 189.94623164 97.23000422 187.73102572 97.63305664 184.16113281 C98.97290039 182.27441406 98.97290039 182.27441406 100.63305664 180.34863281 C103.63397833 176.57953261 104.64996096 173.95998271 104.35180664 169.12988281 C102.0527128 159.63362564 96.17909495 150.75421618 91.07055664 142.53613281 C89.44835155 139.85596788 87.97919111 137.11436562 86.50805664 134.34863281 C82.3187297 126.67361265 79.30616398 123.21753936 70.71899414 120.57128906 C61.45067326 118.04188675 51.16613034 117.13185493 41.63305664 118.16113281 C39.80277121 119.10009417 39.80277121 119.10009417 38.63305664 121.16113281 C38.34637577 123.99936738 38.23659593 126.61316071 38.26977539 129.45019531 C38.26927689 130.26805511 38.26877838 131.08591492 38.26826477 131.92855835 C38.27060577 133.66186954 38.2803359 135.3951841 38.296875 137.12841797 C38.32028391 139.75552562 38.317459 142.38160487 38.31079102 145.00878906 C38.3163746 146.6975971 38.32348873 148.3864009 38.33227539 150.07519531 C38.33136398 150.85053619 38.33045258 151.62587708 38.32951355 152.42471313 C38.43329296 160.59494296 39.67475971 169.42223201 44.63305664 176.16113281 C46.89992423 178.18142884 49.22476485 179.96871797 51.70727539 181.71582031 C53.63305664 183.16113281 53.63305664 183.16113281 54.63305664 185.16113281 C54.94555664 188.09863281 54.94555664 188.09863281 54.63305664 191.16113281 C51.11751782 194.67667163 47.53781759 195.28549407 42.72192383 195.30639648 C41.72368591 195.31277634 40.725448 195.31915619 39.69696045 195.32572937 C38.61884094 195.32684219 37.54072144 195.32795502 36.42993164 195.32910156 C35.31877991 195.33242996 34.20762817 195.33575836 33.06280518 195.33918762 C30.70911066 195.3442541 28.35540895 195.34659603 26.00170898 195.34643555 C22.41125528 195.34861569 18.82111196 195.36675711 15.23071289 195.38574219 C12.94295352 195.38867747 10.6551927 195.39066136 8.36743164 195.39160156 C6.76239777 195.40237984 6.76239777 195.40237984 5.12493896 195.41337585 C-0.39813386 195.39656574 -5.21390639 195.25167171 -10.36694336 193.16113281 C-12.36694336 190.16113281 -12.36694336 190.16113281 -12.55444336 186.91113281 C-11.01870061 182.06141886 -8.68962155 180.84375973 -4.65991211 177.97363281 C1.11190704 173.41124084 3.38909357 167.25827835 4.63305664 160.16113281 C4.92354938 156.07095589 4.92687491 151.99211196 4.92358398 147.89282227 C4.93030121 146.68358597 4.93701843 145.47434967 4.94393921 144.22846985 C4.95961988 140.9306156 4.96629068 137.632913 4.96757078 134.33502603 C4.96899871 132.26780083 4.97328045 130.20060153 4.97856522 128.1333828 C4.99703695 120.9018119 5.00523974 113.67031441 5.00366211 106.4387207 C5.00246265 99.73015798 5.02353361 93.02191797 5.05514944 86.31343681 C5.08142976 80.52796701 5.09202446 74.74260183 5.09075129 68.95707291 C5.09024494 65.51319547 5.09574425 62.06960496 5.11710739 58.62578773 C5.13684426 54.77572996 5.13089777 50.92648875 5.11889648 47.07641602 C5.135755 45.39808685 5.135755 45.39808685 5.1529541 43.68585205 C5.08869669 35.51679167 4.36075226 25.58801246 -1.10869789 19.09268665 C-2.78901175 17.61222899 -4.48170701 16.36734668 -6.36694336 15.16113281 C-11.16527437 11.92747495 -11.16527437 11.92747495 -12.30444336 7.59863281 C-12.36694336 4.16113281 -12.36694336 4.16113281 -10.36694336 1.16113281 C-6.84602621 -0.01250624 -3.66373583 0.00580226 0 0 Z " fill="#010101" transform="translate(43.366943359375,107.8388671875)"/>
<path d="M0 0 C11.30697933 5.67325711 19.88562589 15.51412638 24.55078125 27.15625 C28.77244146 40.20368068 28.79398422 53.22469871 23.234375 65.87109375 C18.41881665 74.21715977 10.77732618 80.86769774 1.3996582 83.4543457 C-3.01167001 84.30338587 -7.4767288 84.16331704 -11.953125 84.12109375 C-12.97744629 84.11432617 -14.00176758 84.10755859 -15.05712891 84.10058594 C-38.9442434 83.77404137 -38.9442434 83.77404137 -46.85437012 75.75308228 C-49.28425429 72.08905067 -49.27258898 69.84292894 -49.28320312 65.46630859 C-49.2902124 64.73887955 -49.29722168 64.0114505 -49.30444336 63.26197815 C-49.32198535 60.86826917 -49.31041763 58.47575128 -49.296875 56.08203125 C-49.29957045 54.41484348 -49.30345331 52.74765725 -49.30847168 51.08047485 C-49.31436104 47.59190862 -49.30582002 44.10375281 -49.28710938 40.61523438 C-49.26428431 36.14142002 -49.27746832 31.66856364 -49.30139923 27.19478416 C-49.31584242 23.7546769 -49.31125873 20.31479745 -49.30088806 16.87468338 C-49.2982185 15.22483838 -49.30149863 13.57497273 -49.31080627 11.92515182 C-49.32095198 9.62190539 -49.3055028 7.32021979 -49.28320312 5.01708984 C-49.27842957 3.05115372 -49.27842957 3.05115372 -49.27355957 1.04550171 C-48.765625 -2.12890625 -48.765625 -2.12890625 -46.92077637 -4.01303101 C-33.27699965 -11.07738523 -13.35493043 -5.45137697 0 0 Z " fill="#CBCCBA" transform="translate(129.765625,128.12890625)"/>
<path d="M0 0 C62.04 0 124.08 0 188 0 C188 8.91 188 17.82 188 27 C125.96 27 63.92 27 0 27 C0 18.09 0 9.18 0 0 Z " fill="#000000" transform="translate(21,317)"/>
<path d="M0 0 C0 6.93 0 13.86 0 21 C-11.3468983 26.71868166 -22.75961084 32.26391138 -34.25 37.6875 C-35.92246277 38.47847733 -37.59490716 39.26949353 -39.26733398 40.06054688 C-50.30219713 45.27556185 -61.36160604 50.43558623 -72.43774414 55.56225586 C-79.70268881 58.92677003 -86.95428869 62.31775325 -94.1875 65.75 C-95.07381104 66.16894531 -95.96012207 66.58789062 -96.87329102 67.01953125 C-97.67178467 67.39980469 -98.47027832 67.78007812 -99.29296875 68.171875 C-99.9893042 68.5028418 -100.68563965 68.83380859 -101.40307617 69.17480469 C-102.99755678 69.89636337 -102.99755678 69.89636337 -104 71 C-103.00895264 71.4125 -102.01790527 71.825 -100.99682617 72.25 C-93.04281951 75.56096925 -85.08934696 78.87322115 -77.13671875 82.1875 C-76.36772751 82.50783203 -75.59873627 82.82816406 -74.80644226 83.15820312 C-67.9642205 86.01029656 -61.1324685 88.88696565 -54.3046875 91.7734375 C-49.65045235 93.7336197 -44.98542851 95.6674703 -40.3203125 97.6015625 C-37.89782857 98.60700178 -35.47540379 99.61258348 -33.05297852 100.61816406 C-31.46108594 101.27829126 -29.86881362 101.93750359 -28.27612305 102.59570312 C-18.74769385 106.53362189 -9.33177852 110.61095801 0 115 C0 121.93 0 128.86 0 136 C-6.74939697 134.87510051 -6.74939697 134.87510051 -10.01977539 133.37695312 C-11.11990715 132.87955124 -11.11990715 132.87955124 -12.24226379 132.37210083 C-13.0195433 132.01212006 -13.79682281 131.65213928 -14.59765625 131.28125 C-15.41977097 130.9076535 -16.24188568 130.53405701 -17.08891296 130.1491394 C-18.84195619 129.35172266 -20.59357489 128.55116798 -22.34387207 127.7477417 C-26.90644563 125.65370256 -31.47936975 123.5824672 -36.05078125 121.5078125 C-37.38313309 120.90194809 -37.38313309 120.90194809 -38.74240112 120.28384399 C-44.71356916 117.57155566 -50.70561279 114.92058691 -56.75 112.375 C-66.8625089 108.10663554 -76.8753689 103.61908097 -86.89797974 99.14492798 C-98.81249058 93.82873753 -110.76802786 88.62122239 -122.78540039 83.54174805 C-123.86039795 83.08582275 -124.93539551 82.62989746 -126.04296875 82.16015625 C-127.45098755 81.56666382 -127.45098755 81.56666382 -128.88745117 80.96118164 C-131 80 -131 80 -132 79 C-132.07271741 76.64686445 -132.08370868 74.29166332 -132.0625 71.9375 C-132.05347656 70.64714844 -132.04445313 69.35679687 -132.03515625 68.02734375 C-132.02355469 67.02832031 -132.01195312 66.02929688 -132 65 C-117.6542438 57.33244065 -103.14061114 50.02236353 -88.5769043 42.78027344 C-80.04922869 38.53593445 -71.53093611 34.27278267 -63.01914978 29.99667358 C-36.32319077 16.58576435 -36.32319077 16.58576435 -25.57617188 11.60913086 C-18.30274251 8.23667902 -11.15386757 4.6175295 -4 1 C-2 0 -2 0 0 0 Z " fill="#050404" transform="translate(465,134)"/>
<path d="M0 0 C0.86625 -0.00773437 1.7325 -0.01546875 2.625 -0.0234375 C5.49801202 0.45854807 6.21418343 1.1195628 8 3.375 C8.37604749 5.31509066 8.37604749 5.31509066 8.37752342 7.56201935 C8.38534666 8.41957431 8.39316991 9.27712928 8.40123022 10.16067076 C8.39453805 11.10316821 8.38784589 12.04566566 8.38095093 13.01672363 C8.3856309 14.01764054 8.39031087 15.01855744 8.39513266 16.04980516 C8.40714335 19.41940408 8.39760161 22.78860085 8.38818359 26.15820312 C8.39224659 28.56754291 8.39758693 30.97688084 8.40411377 33.38621521 C8.4164 39.26033824 8.41456475 45.13435599 8.40587585 51.00847614 C8.39910734 55.78146298 8.39817896 60.55441758 8.4014473 65.32740784 C8.401907 66.0060987 8.40236669 66.68478957 8.40284032 67.38404682 C8.40379948 68.76269004 8.40477212 70.14133324 8.4057581 71.51997644 C8.41431769 84.45487427 8.40446896 97.38970837 8.388357 110.32459575 C8.37495328 121.42915695 8.37728122 132.53362409 8.39111328 143.63818359 C8.40715907 156.52602866 8.41349367 169.41381784 8.40427649 182.3016715 C8.40332082 183.67531172 8.40237771 185.04895194 8.4014473 186.42259216 C8.40098447 187.09849208 8.40052164 187.774392 8.40004479 188.47077373 C8.39745189 193.23936428 8.40183235 198.00791945 8.40888596 202.77650452 C8.41816652 209.19178817 8.41158202 215.60693566 8.39420319 222.02220345 C8.3902242 224.38172674 8.39139635 226.74126496 8.39799118 229.10078239 C8.40614096 232.31181877 8.39596455 235.52227722 8.38095093 238.73327637 C8.38764309 239.67577382 8.39433526 240.61827127 8.40123022 241.58932924 C8.39340697 242.44688421 8.38558373 243.30443917 8.37752342 244.18798065 C8.37703637 244.92946712 8.37654931 245.67095359 8.37604749 246.43490934 C7.89114967 248.93657669 6.98971191 249.82812297 5 251.375 C2.625 251.7734375 2.625 251.7734375 0 251.75 C-0.86625 251.75773438 -1.7325 251.76546875 -2.625 251.7734375 C-5.49801202 251.29145193 -6.21418343 250.6304372 -8 248.375 C-8.37604749 246.43490934 -8.37604749 246.43490934 -8.37752342 244.18798065 C-8.38534666 243.33042569 -8.39316991 242.47287072 -8.40123022 241.58932924 C-8.39453805 240.64683179 -8.38784589 239.70433434 -8.38095093 238.73327637 C-8.3856309 237.73235946 -8.39031087 236.73144256 -8.39513266 235.70019484 C-8.40714335 232.33059592 -8.39760161 228.96139915 -8.38818359 225.59179688 C-8.39224659 223.18245709 -8.39758693 220.77311916 -8.40411377 218.36378479 C-8.4164 212.48966176 -8.41456475 206.61564401 -8.40587585 200.74152386 C-8.39910734 195.96853702 -8.39817896 191.19558242 -8.4014473 186.42259216 C-8.401907 185.7439013 -8.40236669 185.06521043 -8.40284032 184.36595318 C-8.40379948 182.98730996 -8.40477212 181.60866676 -8.4057581 180.23002356 C-8.41431769 167.29512573 -8.40446896 154.36029163 -8.388357 141.42540425 C-8.37495328 130.32084305 -8.37728122 119.21637591 -8.39111328 108.11181641 C-8.40715907 95.22397134 -8.41349367 82.33618216 -8.40427649 69.4483285 C-8.40332082 68.07468828 -8.40237771 66.70104806 -8.4014473 65.32740784 C-8.40098447 64.65150792 -8.40052164 63.975608 -8.40004479 63.27922627 C-8.39745189 58.51063572 -8.40183235 53.74208055 -8.40888596 48.97349548 C-8.41816652 42.55821183 -8.41158202 36.14306434 -8.39420319 29.72779655 C-8.3902242 27.36827326 -8.39139635 25.00873504 -8.39799118 22.64921761 C-8.40614096 19.43818123 -8.39596455 16.22772278 -8.38095093 13.01672363 C-8.38764309 12.07422618 -8.39433526 11.13172873 -8.40123022 10.16067076 C-8.39340697 9.30311579 -8.38558373 8.44556083 -8.37752342 7.56201935 C-8.37703637 6.82053288 -8.37654931 6.07904641 -8.37604749 5.31509066 C-7.46749623 0.62772577 -4.29044218 -0.03830752 0 0 Z " fill="#000001" transform="translate(283,107.625)"/>
<path d="M0 0 C1.32 0 2.64 0 4 0 C3.67 21.78 3.34 43.56 3 66 C2.67 66 2.34 66 2 66 C2 45.21 2 24.42 2 3 C1.01 3 0.02 3 -1 3 C-1 27.42 -1 51.84 -1 77 C-1.33 77 -1.66 77 -2 77 C-2.04627664 67.2557762 -2.08184536 57.51157841 -2.10362434 47.76726723 C-2.11407551 43.2429174 -2.1282589 38.71864259 -2.15087891 34.19433594 C-2.17255993 29.83068476 -2.18455858 25.46710587 -2.18975449 21.103405 C-2.19345879 19.43597653 -2.20069207 17.76855215 -2.21146011 16.10115433 C-2.2259122 13.77128705 -2.22798061 11.44172106 -2.22705078 9.11181641 C-2.23424133 8.41770157 -2.24143188 7.72358673 -2.24884033 7.00843811 C-2.22810432 2.22810432 -2.22810432 2.22810432 0 0 Z " fill="#BABAAF" transform="translate(83,124)"/>
<path d="M0 0 C1 4 1 4 0 6 C-0.99 6 -1.98 6 -3 6 C-3.33 6.99 -3.66 7.98 -4 9 C-10.15234375 8.4140625 -10.15234375 8.4140625 -12 8 C-12.33 7.34 -12.66 6.68 -13 6 C-8.71 4.02 -4.42 2.04 0 0 Z " fill="#C4C5BA" transform="translate(373,198)"/>
<path d="M0 0 C1.27230469 0.01804688 2.54460937 0.03609375 3.85546875 0.0546875 C5.31919922 0.08949219 5.31919922 0.08949219 6.8125 0.125 C5.8225 2.105 4.8325 4.085 3.8125 6.125 C0.8125 5.125 0.8125 5.125 -2.1875 3.125 C-4.18859278 3.45170903 -6.18866131 3.78477214 -8.1875 4.125 C-8.8475 3.465 -9.5075 2.805 -10.1875 2.125 C-6.4507157 -0.36618953 -4.44298181 -0.0815226 0 0 Z " fill="#C4C4B8" transform="translate(92.1875,224.875)"/>
<path d="M0 0 C2 2 2 2 3 6 C0.36 8.31 -2.28 10.62 -5 13 C-5.66 12.34 -6.32 11.68 -7 11 C-6.34 11 -5.68 11 -5 11 C-4.690625 10.21625 -4.38125 9.4325 -4.0625 8.625 C-3 6 -3 6 -2 4 C-1.34 4 -0.68 4 0 4 C0 2.68 0 1.36 0 0 Z " fill="#C4C4B7" transform="translate(41,276)"/>
<path d="M0 0 C3.45195767 1.4258086 5.1014256 3.09746334 7.25 6.125 C8.03117188 7.21167969 8.03117188 7.21167969 8.828125 8.3203125 C9.40820312 9.15175781 9.40820312 9.15175781 10 10 C9.34 10.66 8.68 11.32 8 12 C8 11.34 8 10.68 8 10 C7.34 10 6.68 10 6 10 C5.34 9.01 4.68 8.02 4 7 C3.01 6.67 2.02 6.34 1 6 C0.67 4.02 0.34 2.04 0 0 Z " fill="#C0C1B5" transform="translate(140,137)"/>
<path d="M0 0 C4.23830976 2.82553984 3.97715348 5.12180888 5 10 C4.01 10.33 3.02 10.66 2 11 C-2 6.375 -2 6.375 -2 3 C-1.01 3 -0.02 3 1 3 C0.67 2.01 0.34 1.02 0 0 Z " fill="#C7C8B8" transform="translate(179,129)"/>
<path d="M0 0 C0.99 0.33 1.98 0.66 3 1 C3 4.3 3 7.6 3 11 C3.66 11.33 4.32 11.66 5 12 C4.01 12.33 3.02 12.66 2 13 C0.35 11.35 -1.3 9.7 -3 8 C-2.67 7.34 -2.34 6.68 -2 6 C-1.34 6 -0.68 6 0 6 C0 4.02 0 2.04 0 0 Z " fill="#BABAAF" transform="translate(139,290)"/>
<path d="M0 0 C-0.66 0 -1.32 0 -2 0 C-2.33 1.98 -2.66 3.96 -3 6 C-5.31 5.34 -7.62 4.68 -10 4 C-10 3.34 -10 2.68 -10 2 C-3.375 -1.125 -3.375 -1.125 0 0 Z " fill="#BFC0B2" transform="translate(390,210)"/>
<path d="M0 0 C0.53625 0.226875 1.0725 0.45375 1.625 0.6875 C-0.5625 3.25 -0.5625 3.25 -3.375 5.6875 C-6.1875 5.5 -6.1875 5.5 -8.375 4.6875 C-8.375 4.0275 -8.375 3.3675 -8.375 2.6875 C-2.95961538 -0.38942308 -2.95961538 -0.38942308 0 0 Z " fill="#C0C1B5" transform="translate(438.375,168.3125)"/>
<path d="M0 0 C0.33 0.66 0.66 1.32 1 2 C-0.375 3.5 -0.375 3.5 -2 5 C-2.66 5 -3.32 5 -4 5 C-4 5.66 -4 6.32 -4 7 C-5.65 7.33 -7.3 7.66 -9 8 C-9.33 7.01 -9.66 6.02 -10 5 C-6.7 3.35 -3.4 1.7 0 0 Z " fill="#BABAB2" transform="translate(164,218)"/>
<path d="M0 0 C2 3 2 3 1.625 6.1875 C1.41875 7.115625 1.2125 8.04375 1 9 C0.01 9.33 -0.98 9.66 -2 10 C-2.66 8.02 -3.32 6.04 -4 4 C-2.68 2.68 -1.36 1.36 0 0 Z " fill="#C3C3B6" transform="translate(45,131)"/>
<path d="M0 0 C2.9375 0.375 2.9375 0.375 6 1 C6.33 1.66 6.66 2.32 7 3 C6.34 3 5.68 3 5 3 C4.67 3.99 4.34 4.98 4 6 C2.68 5.67 1.36 5.34 0 5 C0 3.35 0 1.7 0 0 Z " fill="#C4C6B7" transform="translate(340,217)"/>
<path d="M0 0 C3.875 1.75 3.875 1.75 5 4 C4.34 4.66 3.68 5.32 3 6 C0.525 5.01 0.525 5.01 -2 4 C-1.34 2.68 -0.68 1.36 0 0 Z " fill="#0B0C09" transform="translate(425,249)"/>
<path d="M0 0 C0 1.32 0 2.64 0 4 C-4.455 4.495 -4.455 4.495 -9 5 C-9 4.34 -9 3.68 -9 3 C-3.375 0 -3.375 0 0 0 Z " fill="#BCBDB1" transform="translate(405,184)"/>
<path d="M0 0 C0.625 3.0625 0.625 3.0625 1 6 C-2.91402949 4.73058503 -4.79072873 3.48832306 -7 0 C-2.25 -1.125 -2.25 -1.125 0 0 Z " fill="#BDBEB2" transform="translate(89,202)"/>
<path d="M0 0 C0.33 0.66 0.66 1.32 1 2 C-0.32 3.32 -1.64 4.64 -3 6 C-3.99 5.67 -4.98 5.34 -6 5 C-6.33 4.34 -6.66 3.68 -7 3 C-4.69 2.01 -2.38 1.02 0 0 Z " fill="#BDBEB2" transform="translate(373,198)"/>
<path d="M0 0 C0.33 1.32 0.66 2.64 1 4 C-0.65 4.66 -2.3 5.32 -4 6 C-4.66 4.68 -5.32 3.36 -6 2 C-2.25 0 -2.25 0 0 0 Z " fill="#BFBFB2" transform="translate(419,177)"/>
<path d="M0 0 C1.98 0.66 3.96 1.32 6 2 C5.67 2.99 5.34 3.98 5 5 C3.02 4.34 1.04 3.68 -1 3 C-0.67 2.01 -0.34 1.02 0 0 Z " fill="#C1C2B5" transform="translate(435,258)"/>
<path d="M0 0 C2.475 0.495 2.475 0.495 5 1 C5.125 3.875 5.125 3.875 5 7 C4.34 7.66 3.68 8.32 3 9 C2.01 6.03 1.02 3.06 0 0 Z " fill="#C1C3B5" transform="translate(186,148)"/>
<path d="M0 0 C0.66 0.33 1.32 0.66 2 1 C1 4 1 4 -2.0625 5.6875 C-3.031875 6.120625 -4.00125 6.55375 -5 7 C-4.67 5.68 -4.34 4.36 -4 3 C-3.34 3 -2.68 3 -2 3 C-2 2.34 -2 1.68 -2 1 C-1.34 0.67 -0.68 0.34 0 0 Z " fill="#BFC0AF" transform="translate(447,138)"/>
<path d="M0 0 C0 0.99 0 1.98 0 3 C-1.98 3.66 -3.96 4.32 -6 5 C-6 4.01 -6 3.02 -6 2 C-3 0 -3 0 0 0 Z " fill="#BEBEB2" transform="translate(465,131)"/>
<path d="M0 0 C0.99 0.33 1.98 0.66 3 1 C2.67 1.66 2.34 2.32 2 3 C3.32 2.67 4.64 2.34 6 2 C5.67 2.99 5.34 3.98 5 5 C2.69 4.34 0.38 3.68 -2 3 C-1.34 2.67 -0.68 2.34 0 2 C0 1.34 0 0.68 0 0 Z " fill="#B7B7AC" transform="translate(439,235)"/>
<path d="M0 0 C1.32 0.66 2.64 1.32 4 2 C1.61426621 3.89213369 -0.07175348 5.02391783 -3 6 C-3.33 5.34 -3.66 4.68 -4 4 C-2.68 2.68 -1.36 1.36 0 0 Z " fill="#C4C4B8" transform="translate(364,179)"/>
<path d="M0 0 C0.66 0 1.32 0 2 0 C2.66 1.98 3.32 3.96 4 6 C1 6 1 6 -0.6875 4.5 C-1.120625 4.005 -1.55375 3.51 -2 3 C-1.34 2.34 -0.68 1.68 0 1 C0 0.67 0 0.34 0 0 Z " fill="#BEBFB3" transform="translate(168,121)"/>
<path d="M0 0 C3 0 3 0 5 1 C5 2.66666667 5 4.33333333 5 6 C3.02 4.68 1.04 3.36 -1 2 C-0.67 1.34 -0.34 0.68 0 0 Z " fill="#B9BAAC" transform="translate(89,283)"/>
<path d="M0 0 C1.32 0.33 2.64 0.66 4 1 C3.67 2.65 3.34 4.3 3 6 C1.5 4.6875 1.5 4.6875 0 3 C0 2.01 0 1.02 0 0 Z " fill="#C0C2B4" transform="translate(184,274)"/>
<path d="M0 0 C1.9375 0.8125 1.9375 0.8125 4 2 C4.33 2.99 4.66 3.98 5 5 C4.34 5.66 3.68 6.32 3 7 C0 3.375 0 3.375 0 0 Z " fill="#BABAAF" transform="translate(177,132)"/>
</svg>
