<?xml version="1.0" encoding="UTF-8"?>
<svg version="1.1" xmlns="http://www.w3.org/2000/svg" width="32" height="32" viewBox="0 0 500 500">
<path d="M0 0 C165 0 330 0 500 0 C500 165 500 330 500 500 C335 500 170 500 0 500 C0 335 0 170 0 0 Z " fill="#CBCCBA" transform="translate(0,0)"/>
<path d="M0 0 C0.74859787 -0.0049649 1.49719574 -0.00992981 2.26847839 -0.01504517 C4.75329512 -0.02967966 7.23804757 -0.03647817 9.72290039 -0.04199219 C11.00523654 -0.04623325 11.00523654 -0.04623325 12.31347847 -0.05056 C16.85579869 -0.06557379 21.3980871 -0.07478371 25.94042969 -0.07910156 C30.57833559 -0.08452637 35.2159389 -0.10841845 39.85375118 -0.13707352 C43.46176408 -0.15596096 47.06970871 -0.16091957 50.6777668 -0.16243744 C52.38335347 -0.16541658 54.08894039 -0.1732789 55.79447746 -0.18662262 C82.54751296 -0.38063341 111.47316745 3.81171601 131.67602539 23.04003906 C143.1333804 35.4578909 148.33911221 49.97769414 147.94555664 66.70019531 C147.38611897 77.46470853 144.08903086 87.49997189 137.63305664 96.16113281 C137.00786133 97.00289063 136.38266602 97.84464844 135.73852539 98.71191406 C129.77377588 106.00462264 122.81884373 109.8683293 114.63305664 114.16113281 C113.64305664 114.82113281 112.65305664 115.48113281 111.63305664 116.16113281 C116.28411833 124.83626 120.95072213 133.50285046 125.63305664 142.16113281 C126.13321289 143.08667969 126.63336914 144.01222656 127.14868164 144.96582031 C129.91430247 150.06791391 132.73781443 155.13151856 135.63305664 160.16113281 C136.59018555 161.85109375 136.59018555 161.85109375 137.56665039 163.57519531 C141.95379714 170.7806962 147.08596979 175.38651761 153.87524414 180.20019531 C156.63305664 182.16113281 156.63305664 182.16113281 158.63305664 184.16113281 C158.9029757 186.84952666 158.72043021 189.45255218 158.63305664 192.16113281 C152.48499676 195.40935689 147.24924351 195.58632533 140.37133789 195.52441406 C139.30312302 195.52491257 138.23490814 195.52541107 137.13432312 195.52592468 C134.88607921 195.52359255 132.63783227 195.51391514 130.38964844 195.49731445 C126.94645938 195.47363902 123.50404127 195.47677067 120.06079102 195.48339844 C117.87263536 195.47782389 115.68448295 195.47071542 113.49633789 195.46191406 C112.46712723 195.46282547 111.43791656 195.46373688 110.3775177 195.4646759 C109.41939682 195.45514389 108.46127594 195.44561188 107.47412109 195.43579102 C106.63363724 195.43118362 105.79315338 195.42657623 104.92720032 195.42182922 C102.39591804 195.13418542 100.7826891 194.51427239 98.63305664 193.16113281 C97.02560605 189.94623164 97.23000422 187.73102572 97.63305664 184.16113281 C98.97290039 182.27441406 98.97290039 182.27441406 100.63305664 180.34863281 C103.63397833 176.57953261 104.64996096 173.95998271 104.35180664 169.12988281 C102.0527128 159.63362564 96.17909495 150.75421618 91.07055664 142.53613281 C89.44835155 139.85596788 87.97919111 137.11436562 86.50805664 134.34863281 C82.3187297 126.67361265 79.30616398 123.21753936 70.71899414 120.57128906 C61.45067326 118.04188675 51.16613034 117.13185493 41.63305664 118.16113281 C39.80277121 119.10009417 39.80277121 119.10009417 38.63305664 121.16113281 C38.34637577 123.99936738 38.23659593 126.61316071 38.26977539 129.45019531 C38.26927689 130.26805511 38.26877838 131.08591492 38.26826477 131.92855835 C38.27060577 133.66186954 38.2803359 135.3951841 38.296875 137.12841797 C38.32028391 139.75552562 38.317459 142.38160487 38.31079102 145.00878906 C38.3163746 146.6975971 38.32348873 148.3864009 38.33227539 150.07519531 C38.33136398 150.85053619 38.33045258 151.62587708 38.32951355 152.42471313 C38.43329296 160.59494296 39.67475971 169.42223201 44.63305664 176.16113281 C46.89992423 178.18142884 49.22476485 179.96871797 51.70727539 181.71582031 C53.63305664 183.16113281 53.63305664 183.16113281 54.63305664 185.16113281 C54.94555664 188.09863281 54.94555664 188.09863281 54.63305664 191.16113281 C51.11751782 194.67667163 47.53781759 195.28549407 42.72192383 195.30639648 C41.72368591 195.31277634 40.725448 195.31915619 39.69696045 195.32572937 C38.61884094 195.32684219 37.54072144 195.32795502 36.42993164 195.32910156 C35.31877991 195.33242996 34.20762817 195.33575836 33.06280518 195.33918762 C30.70911066 195.3442541 28.35540895 195.34659603 26.00170898 195.34643555 C22.41125528 195.34861569 18.82111196 195.36675711 15.23071289 195.38574219 C12.94295352 195.38867747 10.6551927 195.39066136 8.36743164 195.39160156 C6.76239777 195.40237984 6.76239777 195.40237984 5.12493896 195.41337585 C-0.39813386 195.39656574 -5.21390639 195.25167171 -10.36694336 193.16113281 C-12.36694336 190.16113281 -12.36694336 190.16113281 -12.55444336 186.91113281 C-11.01870061 182.06141886 -8.68962155 180.84375973 -4.65991211 177.97363281 C1.11190704 173.41124084 3.38909357 167.25827835 4.63305664 160.16113281 C4.92354938 156.07095589 4.92687491 151.99211196 4.92358398 147.89282227 C4.93030121 146.68358597 4.93701843 145.47434967 4.94393921 144.22846985 C4.95961988 140.9306156 4.96629068 137.632913 4.96757078 134.33502603 C4.96899871 132.26780083 4.97328045 130.20060153 4.97856522 128.1333828 C4.99703695 120.9018119 5.00523974 113.67031441 5.00366211 106.4387207 C5.00246265 99.73015798 5.02353361 93.02191797 5.05514944 86.31343681 C5.08142976 80.52796701 5.09202446 74.74260183 5.09075129 68.95707291 C5.09024494 65.51319547 5.09574425 62.06960496 5.11710739 58.62578773 C5.13684426 54.77572996 5.13089777 50.92648875 5.11889648 47.07641602 C5.135755 45.39808685 5.135755 45.39808685 5.1529541 43.68585205 C5.08869669 35.51679167 4.36075226 25.58801246 -1.10869789 19.09268665 C-2.78901175 17.61222899 -4.48170701 16.36734668 -6.36694336 15.16113281 C-11.16527437 11.92747495 -11.16527437 11.92747495 -12.30444336 7.59863281 C-12.36694336 4.16113281 -12.36694336 4.16113281 -10.36694336 1.16113281 C-6.84602621 -0.01250624 -3.66373583 0.00580226 0 0 Z " fill="#010101" transform="translate(43.366943359375,107.8388671875)"/>
<path d="M0 0 C11.30697933 5.67325711 19.88562589 15.51412638 24.55078125 27.15625 C28.77244146 40.20368068 28.79398422 53.22469871 23.234375 65.87109375 C18.41881665 74.21715977 10.77732618 80.86769774 1.3996582 83.4543457 C-3.01167001 84.30338587 -7.4767288 84.16331704 -11.953125 84.12109375 C-12.97744629 84.11432617 -14.00176758 84.10755859 -15.05712891 84.10058594 C-38.9442434 83.77404137 -38.9442434 83.77404137 -46.85437012 75.75308228 C-49.28425429 72.08905067 -49.27258898 69.84292894 -49.28320312 65.46630859 C-49.2902124 64.73887955 -49.29722168 64.0114505 -49.30444336 63.26197815 C-49.32198535 60.86826917 -49.31041763 58.47575128 -49.296875 56.08203125 C-49.29957045 54.41484348 -49.30345331 52.74765725 -49.30847168 51.08047485 C-49.31436104 47.59190862 -49.30582002 44.10375281 -49.28710938 40.61523438 C-49.26428431 36.14142002 -49.27746832 31.66856364 -49.30139923 27.19478416 C-49.31584242 23.7546769 -49.31125873 20.31479745 -49.30088806 16.87468338 C-49.2982185 15.22483838 -49.30149863 13.57497273 -49.31080627 11.92515182 C-49.32095198 9.62190539 -49.3055028 7.32021979 -49.28320312 5.01708984 C-49.27842957 3.05115372 -49.27842957 3.05115372 -49.27355957 1.04550171 C-48.765625 -2.12890625 -48.765625 -2.12890625 -46.92077637 -4.01303101 C-33.27699965 -11.07738523 -13.35493043 -5.45137697 0 0 Z " fill="#CBCCBA" transform="translate(129.765625,128.12890625)"/>
</svg>